<?xml version="1.0" encoding="UTF-8"?><svg id="Layer_2" xmlns="http://www.w3.org/2000/svg" viewBox="0 0 48.9 55.5"><defs><style>.cls-1{fill:#6093d1;}.cls-1,.cls-2{stroke-width:0px;}.cls-2{fill:#fff;}</style></defs><g id="Layer_1-2"><path class="cls-2" d="M23.7,32.2s-4.5-4.7-6.6-6.6c-2.1-1.9-6.8-3.9-6.8-3.9,0,0,4.9,3.6,6.9,6.4,2,2.8,3.2,5.9,3.2,5.9l3.3-1.8Z"/><path class="cls-2" d="M27,10.4s-1.3-1.4-2-2c-.6-.6-2-1.2-2-1.2,0,0,1.5,1.1,2.1,1.9.6.9,1,1.8,1,1.8l.9-.5Z"/><path class="cls-2" d="M24.2,41.9s3.4-2.6,4.9-3.7c1.6-1,5.2-1.6,5.2-1.6,0,0-4,1.6-5.6,3.3-1.6,1.6-2.8,3.6-2.8,3.6l-1.7-1.6Z"/><path class="cls-2" d="M37.9,55.5s-3.7-.8-7.5-3.9c-3.9-3.2-9.6-22.2-5.1-34.7,4.5-12.6,11.1-14.6,11.1-14.6,0,0-7,0-14,13.5-6.9,13.5.3,32.1.9,34.9.6,2.8-3.3,4.8-3.3,4.8h17.9Z"/><path class="cls-2" d="M20.5,20.5s7.7-4.9,10.3-5.7c3.2-.9,9.4-1.8,9.4-1.8,0,0-7,2.1-10.4,5-3.4,2.8-6.1,6.5-6.1,6.5l-3.2-4Z"/><polygon class="cls-1" points="47.4 30.2 34.9 30.2 38.1 33.4 33.6 35.8 34.5 37.5 38.8 35.2 38.8 39.6 47.4 30.2"/><polygon class="cls-1" points="30.9 23.7 25.9 29 28.5 28.9 27.7 31.7 28.8 32 29.6 29.3 31.4 31 30.9 23.7"/><polygon class="cls-1" points="12.8 9.8 14 15.2 15.1 13.5 16.5 15.2 17.2 14.7 15.8 13 17.6 12.6 12.8 9.8"/><polygon class="cls-1" points="10 35.2 14.8 41.8 15.2 38.9 18.2 40.3 18.7 39.2 15.9 37.8 18.2 36.2 10 35.2"/><polygon class="cls-1" points="9.8 28.9 11.3 31.1 11.5 30.1 12.5 30.6 12.6 30.2 11.7 29.7 12.5 29.2 9.8 28.9"/><polygon class="cls-1" points="38.3 20.2 35.8 21.1 36.7 21.6 35.9 22.4 36.2 22.6 36.9 21.9 37.2 22.8 38.3 20.2"/><polygon class="cls-1" points="36.3 7.8 34.4 7.9 34.9 8.3 34.3 8.7 34.4 9 35.1 8.6 35.1 9.2 36.3 7.8"/><polygon class="cls-1" points="29.7 1.2 28.5 2.5 29.2 2.5 29 3.2 29.2 3.3 29.4 2.6 29.9 3 29.7 1.2"/><polygon class="cls-1" points="0 32.5 4.1 35.9 3.9 33.9 6 34.4 6.2 33.6 4.2 33.2 5.4 31.7 0 32.5"/><polygon class="cls-1" points="16.7 1.7 19.7 8.5 20.7 6 23 7.9 23.7 7 21.5 5.2 23.9 4.1 16.7 1.7"/><polygon class="cls-1" points="40.9 .3 36.5 0 37.5 1.2 35.9 1.9 36.2 2.6 37.7 1.9 37.6 3.4 40.9 .3"/><polygon class="cls-1" points="1.2 14.5 5.7 23.5 6.8 20 10.1 22.4 11 21.2 7.9 18.9 11 17.3 1.2 14.5"/><polygon class="cls-1" points="48.9 10.3 39.2 8.8 41.3 11.6 37.5 12.9 38 14.3 41.6 13.1 41.1 16.5 48.9 10.3"/></g></svg>